<svg xmlns="http://www.w3.org/2000/svg" xmlns:xlink="http://www.w3.org/1999/xlink" width="500" zoomAndPan="magnify" viewBox="0 0 375 374.999991" height="500" preserveAspectRatio="xMidYMid meet" version="1.0"><defs><g><g id="id1"/><g id="id2"/></g><clipPath id="id3"><path d="M 329.082031 193 L 364 193 L 364 217.339844 L 329.082031 217.339844 Z M 329.082031 193 " clip-rule="nonzero"/></clipPath><clipPath id="id4"><path d="M 332 179.089844 L 367.332031 179.089844 L 367.332031 203 L 332 203 Z M 332 179.089844 " clip-rule="nonzero"/></clipPath></defs><g fill="rgb(0.779724%, 12.939453%, 47.44873%)" fill-opacity="1"><g transform="translate(3.980013, 217.10833)"><g><path d="M 40.53125 0 L 35.21875 0 L 35.171875 -25.484375 L 24.40625 -3.5625 L 20.65625 -3.5625 L 9.890625 -25.484375 L 9.890625 0 L 4.484375 0 L 4.484375 -34.109375 L 11.296875 -34.109375 L 22.5625 -11.453125 L 33.765625 -34.109375 L 40.53125 -34.109375 Z M 40.53125 0 "/></g></g></g><g fill="rgb(0.779724%, 12.939453%, 47.44873%)" fill-opacity="1"><g transform="translate(51.514708, 217.10833)"><g><path d="M 28.84375 -28.9375 L 10.234375 -28.9375 L 10.234375 -19.734375 L 26.890625 -19.734375 L 26.890625 -14.5625 L 10.234375 -14.5625 L 10.234375 -5.171875 L 29.421875 -5.171875 L 29.421875 0 L 4.484375 0 L 4.484375 -34.109375 L 28.84375 -34.109375 Z M 28.84375 -28.9375 "/></g></g></g><g fill="rgb(0.779724%, 12.939453%, 47.44873%)" fill-opacity="1"><g transform="translate(85.948417, 217.10833)"><g><path d="M 27.765625 -28.9375 L 16.953125 -28.9375 L 16.953125 0 L 11.203125 0 L 11.203125 -28.9375 L 0.4375 -28.9375 L 0.4375 -34.109375 L 27.765625 -34.109375 Z M 27.765625 -28.9375 "/></g></g></g><g fill="rgb(0.779724%, 12.939453%, 47.44873%)" fill-opacity="1"><g transform="translate(116.632018, 217.10833)"><g><path d="M 26.5 -7.703125 L 9.3125 -7.703125 L 6.046875 0 L 0.046875 0 L 15.109375 -34.109375 L 21 -34.109375 L 35.90625 0 L 29.765625 0 Z M 24.3125 -12.8125 L 17.875 -27.96875 L 11.453125 -12.8125 Z M 24.3125 -12.8125 "/></g></g></g><g fill="rgb(0.779724%, 12.939453%, 47.44873%)" fill-opacity="1"><g transform="translate(155.059329, 217.10833)"><g><path d="M 19.6875 0 L 13.734375 0 L 0.140625 -34.109375 L 6.328125 -34.109375 L 16.859375 -6.375 L 27.484375 -34.109375 L 33.46875 -34.109375 Z M 19.6875 0 "/></g></g></g><g fill="rgb(0.779724%, 12.939453%, 47.44873%)" fill-opacity="1"><g transform="translate(191.14891, 217.10833)"><g><path d="M 28.84375 -28.9375 L 10.234375 -28.9375 L 10.234375 -19.734375 L 26.890625 -19.734375 L 26.890625 -14.5625 L 10.234375 -14.5625 L 10.234375 -5.171875 L 29.421875 -5.171875 L 29.421875 0 L 4.484375 0 L 4.484375 -34.109375 L 28.84375 -34.109375 Z M 28.84375 -28.9375 "/></g></g></g><g fill="rgb(0.779724%, 12.939453%, 47.44873%)" fill-opacity="1"><g transform="translate(225.58261, 217.10833)"><g><path d="M 26.109375 0 L 19.875 -10.328125 C 19.550781 -10.296875 19.03125 -10.28125 18.3125 -10.28125 L 10.234375 -10.28125 L 10.234375 0 L 4.484375 0 L 4.484375 -34.109375 L 18.3125 -34.109375 C 22.664062 -34.109375 26.046875 -33.09375 28.453125 -31.0625 C 30.859375 -29.03125 32.0625 -26.160156 32.0625 -22.453125 C 32.0625 -19.722656 31.453125 -17.414062 30.234375 -15.53125 C 29.015625 -13.65625 27.269531 -12.28125 25 -11.40625 L 32.640625 0 Z M 10.234375 -15.4375 L 18.3125 -15.4375 C 23.832031 -15.4375 26.59375 -17.726562 26.59375 -22.3125 C 26.59375 -26.726562 23.832031 -28.9375 18.3125 -28.9375 L 10.234375 -28.9375 Z M 10.234375 -15.4375 "/></g></g></g><g fill="rgb(0.779724%, 12.939453%, 47.44873%)" fill-opacity="1"><g transform="translate(263.279378, 217.10833)"><g><path d="M 15.6875 -34.34375 C 20.101562 -34.34375 24.082031 -33.175781 27.625 -30.84375 L 25.234375 -25.765625 C 21.753906 -27.878906 18.425781 -28.9375 15.25 -28.9375 C 13.53125 -28.9375 12.171875 -28.628906 11.171875 -28.015625 C 10.179688 -27.398438 9.6875 -26.519531 9.6875 -25.375 C 9.6875 -24.238281 10.140625 -23.273438 11.046875 -22.484375 C 11.960938 -21.691406 13.101562 -21.109375 14.46875 -20.734375 C 15.832031 -20.359375 17.3125 -19.882812 18.90625 -19.3125 C 20.5 -18.75 21.972656 -18.148438 23.328125 -17.515625 C 24.691406 -16.878906 25.820312 -15.882812 26.71875 -14.53125 C 27.613281 -13.1875 28.0625 -11.554688 28.0625 -9.640625 C 28.0625 -6.660156 26.867188 -4.273438 24.484375 -2.484375 C 22.097656 -0.703125 19.003906 0.1875 15.203125 0.1875 C 12.597656 0.1875 10.078125 -0.296875 7.640625 -1.265625 C 5.210938 -2.242188 3.085938 -3.5625 1.265625 -5.21875 L 3.75 -10.1875 C 5.46875 -8.59375 7.359375 -7.363281 9.421875 -6.5 C 11.484375 -5.644531 13.441406 -5.21875 15.296875 -5.21875 C 17.304688 -5.21875 18.875 -5.582031 20 -6.3125 C 21.125 -7.039062 21.6875 -8.054688 21.6875 -9.359375 C 21.6875 -10.523438 21.226562 -11.503906 20.3125 -12.296875 C 19.40625 -13.097656 18.269531 -13.679688 16.90625 -14.046875 C 15.539062 -14.421875 14.0625 -14.875 12.46875 -15.40625 C 10.875 -15.945312 9.394531 -16.519531 8.03125 -17.125 C 6.675781 -17.726562 5.539062 -18.691406 4.625 -20.015625 C 3.71875 -21.347656 3.265625 -22.957031 3.265625 -24.84375 C 3.265625 -27.738281 4.398438 -30.046875 6.671875 -31.765625 C 8.941406 -33.484375 11.945312 -34.34375 15.6875 -34.34375 Z M 15.6875 -34.34375 "/></g></g></g><g fill="rgb(0.779724%, 12.939453%, 47.44873%)" fill-opacity="1"><g transform="translate(296.057178, 217.10833)"><g><path d="M 28.84375 -28.9375 L 10.234375 -28.9375 L 10.234375 -19.734375 L 26.890625 -19.734375 L 26.890625 -14.5625 L 10.234375 -14.5625 L 10.234375 -5.171875 L 29.421875 -5.171875 L 29.421875 0 L 4.484375 0 L 4.484375 -34.109375 L 28.84375 -34.109375 Z M 28.84375 -28.9375 "/></g></g></g><g fill="rgb(0%, 0%, 0%)" fill-opacity="1"><g transform="translate(3.980013, 178.677696)"><g><path d="M 16.328125 -16.15625 L 10.390625 -16.15625 L 10.390625 0 L 6.390625 0 L 6.390625 -16.15625 L 0.53125 -16.15625 L 0.53125 -19.390625 L 16.328125 -19.390625 Z M 16.328125 -16.15625 "/></g></g></g><g fill="rgb(0%, 0%, 0%)" fill-opacity="1"><g transform="translate(28.154507, 178.677696)"><g><path d="M 13.390625 -8.40625 L 5.71875 -8.40625 L 5.71875 -3.203125 L 14.71875 -3.203125 L 14.71875 0 L 1.734375 0 L 1.734375 -19.390625 L 14.703125 -19.390625 L 14.703125 -16.15625 L 5.71875 -16.15625 L 5.71875 -11.53125 L 13.390625 -11.53125 Z M 13.390625 -8.40625 "/></g></g></g><g fill="rgb(0%, 0%, 0%)" fill-opacity="1"><g transform="translate(50.79815, 178.677696)"><g><path d="M 12.671875 -4 L 5.671875 -4 L 4.34375 0 L 0.09375 0 L 7.3125 -19.390625 L 11.015625 -19.390625 L 18.265625 0 L 14.015625 0 Z M 6.75 -7.234375 L 11.59375 -7.234375 L 9.15625 -14.484375 Z M 6.75 -7.234375 "/></g></g></g><g fill="rgb(0%, 0%, 0%)" fill-opacity="1"><g transform="translate(76.450248, 178.677696)"><g><path d="M 6.953125 -19.390625 L 11.921875 -5.328125 L 16.875 -19.390625 L 22.125 -19.390625 L 22.125 0 L 18.125 0 L 18.125 -5.296875 L 18.515625 -14.4375 L 13.28125 0 L 10.546875 0 L 5.328125 -14.4375 L 5.71875 -5.296875 L 5.71875 0 L 1.734375 0 L 1.734375 -19.390625 Z M 6.953125 -19.390625 "/></g></g></g><g clip-path="url(#id3)"><path fill="rgb(0.779724%, 12.939453%, 47.44873%)" d="M 348.289062 204.191406 C 348.886719 204.191406 349.375 204.675781 349.375 205.277344 C 349.375 205.878906 348.886719 206.367188 348.289062 206.367188 C 347.6875 206.367188 347.199219 205.878906 347.199219 205.277344 C 347.199219 204.675781 347.6875 204.191406 348.289062 204.191406 Z M 344.746094 196.429688 C 344.144531 196.429688 343.65625 195.941406 343.65625 195.339844 C 343.65625 194.742188 344.144531 194.253906 344.746094 194.253906 C 345.347656 194.253906 345.832031 194.742188 345.832031 195.339844 C 345.832031 195.941406 345.347656 196.429688 344.746094 196.429688 Z M 361.230469 205.425781 C 361.234375 205.417969 361.238281 205.410156 361.242188 205.40625 C 361.289062 205.324219 361.332031 205.238281 361.375 205.15625 C 361.390625 205.132812 361.402344 205.109375 361.414062 205.085938 C 361.453125 205.007812 361.492188 204.933594 361.53125 204.859375 C 361.648438 204.621094 361.761719 204.382812 361.867188 204.140625 L 352.367188 194.695312 L 346.53125 194.695312 C 346.265625 193.964844 345.566406 193.441406 344.746094 193.441406 C 343.695312 193.441406 342.847656 194.292969 342.847656 195.339844 C 342.847656 196.390625 343.695312 197.238281 344.746094 197.238281 C 345.542969 197.238281 346.226562 196.75 346.507812 196.050781 L 351.804688 196.050781 L 358.441406 202.652344 C 356.726562 206.605469 352.789062 209.371094 348.207031 209.371094 C 342.90625 209.371094 338.472656 205.675781 337.335938 200.726562 L 342.5625 205.925781 L 346.503906 205.925781 C 346.765625 206.65625 347.464844 207.175781 348.289062 207.175781 C 349.335938 207.175781 350.1875 206.328125 350.1875 205.277344 C 350.1875 204.230469 349.335938 203.378906 348.289062 203.378906 C 347.492188 203.378906 346.808594 203.871094 346.527344 204.566406 L 343.125 204.566406 L 333.058594 194.554688 L 331.523438 194.945312 L 329.269531 195.523438 C 329.148438 196.402344 329.082031 197.300781 329.082031 198.214844 C 329.082031 199.128906 329.148438 200.027344 329.269531 200.90625 L 333.824219 202.074219 C 334.164062 203.34375 334.667969 204.542969 335.3125 205.65625 L 332.914062 209.703125 C 333.996094 211.140625 335.28125 212.425781 336.71875 213.507812 L 340.765625 211.109375 C 341.878906 211.753906 343.078125 212.257812 344.347656 212.597656 L 345.515625 217.152344 C 346.394531 217.277344 347.292969 217.339844 348.207031 217.339844 C 349.121094 217.339844 350.019531 217.277344 350.898438 217.152344 L 352.0625 212.597656 C 353.332031 212.257812 354.535156 211.753906 355.644531 211.109375 L 359.691406 213.507812 C 361.132812 212.425781 362.414062 211.140625 363.5 209.703125 L 361.101562 205.65625 C 361.144531 205.578125 361.1875 205.503906 361.230469 205.425781 " fill-opacity="1" fill-rule="nonzero"/></g><g clip-path="url(#id4)"><path fill="rgb(0.779724%, 12.939453%, 47.44873%)" d="M 348.125 192.242188 C 347.523438 192.242188 347.035156 191.753906 347.035156 191.152344 C 347.035156 190.554688 347.523438 190.066406 348.125 190.066406 C 348.726562 190.066406 349.210938 190.554688 349.210938 191.152344 C 349.210938 191.753906 348.726562 192.242188 348.125 192.242188 Z M 351.667969 200.003906 C 352.269531 200.003906 352.753906 200.488281 352.753906 201.089844 C 352.753906 201.691406 352.269531 202.179688 351.667969 202.179688 C 351.066406 202.179688 350.578125 201.691406 350.578125 201.089844 C 350.578125 200.488281 351.066406 200.003906 351.667969 200.003906 Z M 367.140625 195.523438 L 362.585938 194.359375 C 362.25 193.089844 361.746094 191.886719 361.101562 190.777344 L 363.5 186.730469 C 362.414062 185.289062 361.132812 184.007812 359.691406 182.921875 L 355.644531 185.320312 C 354.535156 184.679688 353.332031 184.175781 352.0625 183.835938 L 350.898438 179.28125 C 350.019531 179.15625 349.121094 179.089844 348.207031 179.089844 C 347.292969 179.089844 346.394531 179.15625 345.515625 179.28125 L 344.347656 183.835938 C 343.078125 184.175781 341.878906 184.679688 340.765625 185.320312 L 336.71875 182.921875 C 335.28125 184.007812 333.996094 185.289062 332.914062 186.730469 L 335.3125 190.777344 C 335.265625 190.851562 335.222656 190.929688 335.179688 191.007812 C 335.175781 191.011719 335.175781 191.019531 335.171875 191.023438 C 335.125 191.109375 335.078125 191.191406 335.035156 191.277344 C 335.023438 191.300781 335.011719 191.324219 334.996094 191.347656 C 334.957031 191.421875 334.917969 191.5 334.882812 191.574219 C 334.765625 191.8125 334.652344 192.050781 334.546875 192.292969 L 344.046875 201.738281 L 349.882812 201.738281 C 350.144531 202.46875 350.84375 202.988281 351.667969 202.988281 C 352.714844 202.988281 353.566406 202.140625 353.566406 201.089844 C 353.566406 200.042969 352.714844 199.191406 351.667969 199.191406 C 350.871094 199.191406 350.1875 199.683594 349.90625 200.378906 L 344.605469 200.378906 L 337.96875 193.777344 C 339.683594 189.824219 343.621094 187.0625 348.207031 187.0625 C 353.503906 187.0625 357.9375 190.753906 359.078125 195.707031 L 353.847656 190.507812 L 349.910156 190.507812 C 349.644531 189.777344 348.945312 189.253906 348.125 189.253906 C 347.078125 189.253906 346.226562 190.105469 346.226562 191.152344 C 346.226562 192.203125 347.078125 193.050781 348.125 193.050781 C 348.921875 193.050781 349.605469 192.5625 349.886719 191.863281 L 353.285156 191.863281 L 363.355469 201.878906 L 364.164062 201.667969 L 367.140625 200.90625 C 367.265625 200.027344 367.332031 199.128906 367.332031 198.214844 C 367.332031 197.300781 367.265625 196.402344 367.140625 195.523438 " fill-opacity="1" fill-rule="nonzero"/></g></svg>