<?xml version="1.0" standalone="no"?>
<!DOCTYPE svg PUBLIC "-//W3C//DTD SVG 20010904//EN"
 "http://www.w3.org/TR/2001/REC-SVG-20010904/DTD/svg10.dtd">
<svg version="1.0" xmlns="http://www.w3.org/2000/svg"
 width="156.000000pt" height="156.000000pt" viewBox="0 0 156.000000 156.000000"
 preserveAspectRatio="xMidYMid meet">

<g transform="translate(0.000000,156.000000) scale(0.100000,-0.100000)"
fill="#000000" stroke="none">
<path d="M693 1494 c-6 -3 -20 -39 -29 -81 -17 -71 -21 -77 -54 -90 -19 -8
-49 -21 -66 -30 -31 -14 -34 -13 -99 27 -62 38 -70 41 -93 29 -26 -15 -112
-106 -112 -120 0 -5 19 -39 41 -76 34 -55 39 -70 30 -85 -6 -10 -11 -23 -11
-30 0 -7 73 -86 163 -176 l162 -162 102 0 c96 0 104 -2 127 -25 32 -32 60 -32
91 0 27 26 31 46 14 76 -22 42 -88 43 -112 3 -6 -10 -33 -14 -100 -14 l-92 0
-119 119 -119 119 13 33 c8 17 37 55 65 84 123 127 302 158 462 80 89 -44 180
-149 199 -230 6 -26 -4 -20 -83 58 l-88 87 -69 0 c-60 0 -71 3 -92 25 -29 31
-64 32 -92 2 -26 -27 -28 -54 -6 -85 20 -29 74 -30 99 -2 14 15 31 20 74 20
l56 0 180 -179 180 -180 67 16 c73 18 78 26 78 113 0 90 -5 97 -84 115 -39 10
-76 23 -82 29 -5 6 -20 37 -33 68 l-22 57 41 70 42 71 -34 38 c-41 49 -95 95
-105 90 -5 -1 -38 -20 -74 -41 l-66 -37 -65 30 -66 29 -17 73 c-10 40 -23 76
-29 80 -12 8 -154 9 -173 2z m117 -403 c15 -28 -21 -71 -47 -55 -22 14 -29 54
-11 65 22 14 47 10 58 -10z m124 -353 c23 -38 -35 -78 -61 -42 -17 23 -16 29
3 49 20 19 43 16 58 -7z"/>
<path d="M610 970 c-24 -24 -26 -57 -4 -88 20 -29 74 -30 99 -2 16 17 31 20
109 20 l91 0 119 -119 118 -118 -20 -39 c-11 -21 -42 -60 -69 -85 -123 -119
-294 -146 -450 -73 -88 42 -180 148 -199 229 -6 26 4 20 83 -57 l88 -88 71 0
c60 0 74 -3 85 -20 24 -33 64 -36 93 -6 33 32 33 60 0 92 -29 30 -69 27 -93
-6 -11 -16 -25 -20 -70 -20 l-56 0 -181 181 -181 180 -64 -16 c-35 -9 -67 -22
-71 -28 -10 -15 -10 -159 0 -173 4 -6 40 -19 80 -29 l73 -17 29 -66 30 -65
-40 -69 c-22 -39 -40 -72 -40 -75 0 -9 56 -71 95 -104 l35 -31 71 42 70 41 57
-22 c31 -13 62 -28 68 -33 6 -6 19 -43 29 -82 18 -79 25 -84 115 -84 90 0 95
4 115 90 l18 77 67 27 68 26 72 -41 72 -42 66 66 65 66 -42 72 c-38 67 -41 75
-30 102 12 29 11 30 -157 198 l-170 169 -102 0 c-89 0 -105 3 -122 20 -11 11
-31 20 -45 20 -14 0 -34 -9 -45 -20z m80 -30 c8 -15 6 -24 -10 -40 -16 -16
-25 -18 -40 -10 -19 10 -27 49 -13 63 14 14 53 6 63 -13z m124 -352 c23 -38
-35 -78 -61 -42 -17 23 -16 29 3 49 20 19 43 16 58 -7z"/>
</g>
</svg>
